<?xml version="1.0" encoding="utf-8"?>
<!-- Generator: Adobe Illustrator 16.0.0, SVG Export Plug-In . SVG Version: 6.00 Build 0)  -->
<!DOCTYPE svg PUBLIC "-//W3C//DTD SVG 1.1//EN" "http://www.w3.org/Graphics/SVG/1.1/DTD/svg11.dtd">
<svg version="1.1" id="Layer_1" xmlns="http://www.w3.org/2000/svg" xmlns:xlink="http://www.w3.org/1999/xlink" x="0px" y="0px"
	 width="1200px" height="1200px" viewBox="0 0 1200 1200" enable-background="new 0 0 1200 1200" xml:space="preserve">
<g>
	<polygon points="1087.166,914.901 647.33,1149.023 207.494,914.901 207.494,446.659 647.33,212.539 1087.166,446.659 	"/>
	<polygon points="992.506,753.338 552.67,987.461 112.834,753.338 112.834,285.097 552.67,50.977 992.506,285.097 	"/>
	<polygon stroke="#000000" stroke-width="20" stroke-linecap="round" stroke-linejoin="round" stroke-miterlimit="10" points="
		901.521,823.321 545.054,1013.065 188.586,823.321 188.586,443.832 545.054,254.089 901.521,443.832 	"/>
	<g>
		<!-- HACK THE -->
		<g>
			<path fill="#FFFFFF" d="M312.997,545.023v-34.518h-12.882v34.518h-10.48V469h10.48v32.294h12.882V469h10.48v76.024H312.997z"/>
			<path fill="#FFFFFF" d="M378.718,545.023h-10.48v-63c0-8.682,4.184-13.023,12.555-13.023h7.86
				c8.368,0,12.555,4.341,12.555,13.023v63h-10.48v-27.847h-12.009V545.023z M390.727,507.964v-25.306
				c0-2.964-1.528-4.447-4.585-4.447h-2.839c-3.057,0-4.585,1.482-4.585,4.447v25.306H390.727z"/>
			<path fill="#FFFFFF" d="M477.299,527.235v4.871c0,8.613-4.187,12.918-12.555,12.918h-6.769c-8.371,0-12.555-4.305-12.555-12.918
				v-50.188c0-8.611,4.184-12.917,12.555-12.917h6.769c8.368,0,12.555,4.306,12.555,12.917v8.577h-10.48v-7.835
				c0-2.964-1.566-4.447-4.694-4.447h-2.074c-2.767,0-4.148,1.482-4.148,4.447v48.707c0,2.964,1.382,4.447,4.148,4.447h2.62
				c2.765,0,4.148-1.482,4.148-4.447v-4.13H477.299z"/>
			<path fill="#FFFFFF" d="M531.448,545.023h-10.48V469h10.48V545.023z M555.575,545.023h-10.48l-13.101-37.165v-0.635L542.911,469
				h9.606l-11.025,37.8L555.575,545.023z"/>
			<path fill="#FFFFFF" d="M666.71,478.211v66.812h-10.48v-66.812h-10.044V469h30.568v9.212H666.71z"/>
			<path fill="#FFFFFF" d="M741.6,545.023v-34.518h-12.882v34.518h-10.48V469h10.48v32.294H741.6V469h10.48v76.024H741.6z"/>
			<path fill="#FFFFFF" d="M797.387,545.023V469h25.982v9.212h-15.502v23.083h13.755v9.211h-13.755v25.306h15.502v9.212H797.387z"/>
		</g>

		<!-- BURGH -->
		<g>
			<path fill="#FFFFFF" d="M353.543,669.554c15.261,4.253,22.896,12.173,22.896,23.767v52.168c0,20.678-10.533,31.012-31.591,31.012
				h-55.937V568.405h47.531c24.73,0,37.099,12.562,37.099,37.677v39.996c0,11.982-6.666,19.323-19.998,22.027V669.554z
				 M316.734,656.223h13.042c10.624,0,15.94-5.022,15.94-15.071v-32.46c0-10.045-4.157-15.072-12.462-15.072h-16.521V656.223z
				 M316.734,751.285h20.868c7.34,0,11.013-2.993,11.013-8.984v-46.083c0-9.854-5.507-14.78-16.52-14.78h-15.361V751.285z"/>
			<path fill="#FFFFFF" d="M490.047,568.405v168.679c0,26.278-11.208,39.416-33.62,39.416h-23.476
				c-22.222,0-33.33-13.232-33.33-39.706V568.405h27.823v169.258c0,9.084,4.058,13.622,12.173,13.622h11.304
				c7.535,0,11.303-4.538,11.303-13.622V568.405H490.047z"/>
			<path fill="#FFFFFF" d="M516.129,568.405h54.487c21.253,0,31.881,11.883,31.881,35.649v51.299
				c0,18.164-5.507,29.662-16.52,34.489l19.418,86.658h-26.374l-18.259-84.05h-16.811v84.05h-27.823V568.405z M543.952,668.685
				h18.26c8.305,0,12.462-5.022,12.462-15.071v-44.922c0-10.045-4.157-15.072-12.462-15.072h-18.26V668.685z"/>
			<path fill="#FFFFFF" d="M668.575,700.275v-25.215h42.314V776.5h-54.487c-21.447,0-32.171-11.688-32.171-35.069V604.054
				c0-23.766,10.724-35.649,32.171-35.649h19.129c23.57,0,35.358,12.078,35.358,36.228v22.607h-27.823v-18.549
				c0-10.045-3.963-15.072-11.883-15.072h-6.956c-8.115,0-12.173,5.027-12.173,15.072v127.522c0,10.049,4.058,15.071,12.173,15.071
				h18.839v-51.01H668.575z"/>
			<path fill="#FFFFFF" d="M795.518,776.5v-94.483h-34.2V776.5h-27.823V568.405h27.823v88.397h34.2v-88.397h27.823V776.5H795.518z"
				/>
		</g>
	</g>
	
		<polygon fill="none" stroke="#FFFFFF" stroke-width="20" stroke-linecap="round" stroke-linejoin="round" stroke-miterlimit="10" points="
		901.521,811.16 552.67,996.851 203.818,811.16 203.818,439.778 552.67,254.089 901.521,439.778 	"/>
	
		<polygon fill="none" stroke="#FFFFFF" stroke-width="8" stroke-linecap="round" stroke-linejoin="round" stroke-miterlimit="10" points="
		1062.906,902.987 647.33,1124.196 231.754,902.987 231.754,460.572 647.33,239.365 1062.906,460.572 	"/>
	
		<polygon fill="none" stroke="#FFFFFF" stroke-width="8" stroke-linecap="round" stroke-linejoin="round" stroke-miterlimit="10" points="
		968.246,740.425 552.67,961.634 137.094,740.425 137.094,298.01 552.67,76.803 968.246,298.01 	"/>
	
	<!-- 2017 -->
	<!--g>
		<path fill="#FFFFFF" d="M773.762,1021.143l6.352,11.729l-35.184,19.054l-16.321-30.138c-0.887-1.637-1.488-3.074-1.807-4.313
			c-0.317-1.239-0.395-2.521-0.229-3.844c0.164-1.324,0.643-3.316,1.436-5.98l6.359-19.847c0.457-1.54,0.785-2.833,0.982-3.883
			c0.197-1.046,0.274-1.882,0.23-2.506c-0.044-0.621-0.191-1.219-0.44-1.79c-0.25-0.57-0.62-1.309-1.113-2.219l-9.822-18.137
			c-2.067-3.818-4.966-4.719-8.693-2.7l-0.817,0.443c-3.729,2.02-4.557,4.938-2.49,8.755l5.466,10.092l-13.091,7.09l-5.909-10.91
			c-6.056-11.182-3.856-19.604,6.599-25.266l6.818-3.693c10.454-5.661,18.711-2.902,24.767,8.281l12.703,23.455
			c0.985,1.82,1.595,3.546,1.834,5.18c0.238,1.635-0.146,4.02-1.153,7.15l-6.923,21.738c-0.884,2.714-1.287,4.461-1.216,5.244
			c0.072,0.785,0.258,1.508,0.557,2.168c0.298,0.662,0.744,1.536,1.335,2.628l7.681,14.183L773.762,1021.143z"/>
		<path fill="#FFFFFF" d="M809.704,1016.846c-10.456,5.662-18.711,2.902-24.767-8.28l-34.859-64.367
			c-6.055-11.183-3.856-19.604,6.6-25.267l9.137-4.948c10.453-5.661,18.711-2.902,24.766,8.28l34.859,64.367
			c6.056,11.183,3.855,19.605-6.599,25.267L809.704,1016.846z M765.693,929.393c-3.456,1.872-4.147,4.717-2.08,8.534l33.973,62.73
			c2.068,3.818,5.056,4.669,8.966,2.552l3.272-1.772c3.454-1.87,4.148-4.716,2.08-8.534l-33.972-62.73
			c-2.067-3.817-5.058-4.668-8.966-2.552L765.693,929.393z"/>
		<path fill="#FFFFFF" d="M804.421,921.117l-7.874-7.375c2.674-3.092,4.576-6.417,5.711-9.971c1.133-3.552,1.668-7.017,1.604-10.393
			l1.363-0.738l11.103-0.017l50.515,93.277l-12.955,7.017l-42.613-78.686L804.421,921.117z"/>
		<path fill="#FFFFFF" d="M882.523,977.409l-29.543-94.934l-24.411,13.22l-6.573-12.138l34.229-18.537l7.522,5.098l31.73,100.275
			L882.523,977.409z"/>
	</g-->
</g>
</svg>
